<?xml version="1.0" encoding="UTF-8" standalone="no"?>
<svg
   viewBox="0 0 512 512"
   version="1.1"
   id="svg506"
   sodipodi:docname="twitter.svg"
   inkscape:version="1.2.1 (9c6d41e410, 2022-07-14)"
   xmlns:inkscape="http://www.inkscape.org/namespaces/inkscape"
   xmlns:sodipodi="http://sodipodi.sourceforge.net/DTD/sodipodi-0.dtd"
   xmlns="http://www.w3.org/2000/svg"
   xmlns:svg="http://www.w3.org/2000/svg">
  <defs
     id="defs510" />
  <sodipodi:namedview
     id="namedview508"
     pagecolor="#8f8f8f"
     bordercolor="#666666"
     borderopacity="1.0"
     inkscape:showpageshadow="2"
     inkscape:pageopacity="0.36862745"
     inkscape:pagecheckerboard="0"
     inkscape:deskcolor="#d1d1d1"
     showgrid="false"
     inkscape:zoom="0.921875"
     inkscape:cx="464.81356"
     inkscape:cy="257.62712"
     inkscape:window-width="1700"
     inkscape:window-height="881"
     inkscape:window-x="2391"
     inkscape:window-y="-9"
     inkscape:window-maximized="1"
     inkscape:current-layer="svg506" />
  <!--! Font Awesome Pro 6.2.1 by @fontawesome - https://fontawesome.com License - https://fontawesome.com/license (Commercial License) Copyright 2022 Fonticons, Inc. -->
  <path
     style="fill:#ffffff;stroke:none;stroke-width:10.847;stroke-linecap:square;stroke-linejoin:round;stroke-dasharray:none;stroke-opacity:1;paint-order:stroke fill markers"
     d="M 108.45764,471.87428 C 80.4109,466.77155 54.031571,458.04271 28.186455,445.31276 L 3.2373028,433.02411 30.355947,431.59409 c 42.634587,-2.24822 76.564063,-12.99491 110.227333,-34.91293 14.37788,-9.3614 14.70042,-12.47629 1.29874,-12.54263 -7.3243,-0.0362 -26.35013,-6.06341 -37.75116,-11.95911 -15.287932,-7.90569 -37.327488,-32.43539 -44.442368,-49.46371 l -2.968387,-7.10435 18.81792,-0.0232 c 10.349856,-0.013 20.63115,-1.05158 22.847319,-2.30854 3.472846,-1.9697 2.450056,-2.80194 -7.405074,-6.02539 -25.070236,-8.19998 -49.508803,-29.96927 -60.84902,-54.20275 -6.632482,-14.17329 -12.54124,-39.14067 -9.890352,-41.79156 0.820363,-0.82037 4.813104,0.0923 8.872757,2.02827 8.645178,4.1226 33.099453,9.51364 34.915773,7.69732 0.68819,-0.68819 -4.692324,-6.92047 -11.956702,-13.84951 C 21.337156,177.81922 11.879008,131.78197 28.604139,92.903362 l 4.461247,-10.370453 17.628331,18.040871 c 37.054764,37.92193 80.330973,63.93218 130.616763,78.50443 19.12299,5.54162 53.31637,11.91699 64.00437,11.93363 5.53697,0.009 5.58405,-0.1308 3.99585,-11.83419 -4.35178,-32.06856 7.8981,-65.62337 32.28481,-88.434278 22.36095,-20.916054 43.90431,-28.659415 76.13384,-27.364905 18.56119,0.745515 22.71597,1.710361 37.40605,8.686656 9.0891,4.316393 20.37296,11.323818 25.07526,15.572058 6.45079,5.827901 9.84394,7.432691 13.82203,6.537131 12.83679,-2.88986 34.48372,-10.569624 45.95037,-16.301994 7.16264,-3.580726 12.47458,-5.180632 12.47458,-3.757234 0,6.494958 -14.76597,27.002046 -28.83719,40.049326 -15.35013,14.23312 -15.49791,14.47175 -8.04417,12.99056 15.35074,-3.05046 41.99565,-10.15938 45.88991,-12.24353 9.8964,-5.29639 2.37488,4.62291 -20.94076,27.61645 l -24.94915,24.60449 v 20.33788 c 0,49.92326 -18.39392,108.54482 -48.8832,155.79108 -45.25064,70.12052 -114.54327,115.34674 -197.28939,128.76776 -24.36653,3.95212 -78.83162,3.86859 -100.94605,-0.15482 z"
     id="path752" />
</svg>
